<?xml version="1.0" standalone="no"?>
<!DOCTYPE svg PUBLIC "-//W3C//DTD SVG 20010904//EN"
 "http://www.w3.org/TR/2001/REC-SVG-20010904/DTD/svg10.dtd">
<svg version="1.0" xmlns="http://www.w3.org/2000/svg"
 width="217.000000pt" height="217.000000pt" viewBox="0 0 217.000000 217.000000"
 preserveAspectRatio="xMidYMid meet">
<metadata>
Created by potrace 1.14, written by Peter Selinger 2001-2017
</metadata>
<g transform="translate(0.000000,217.000000) scale(0.100000,-0.100000)"
fill="#000000" stroke="none">
<path d="M765 1986 l-289 -83 -182 -237 c-100 -130 -184 -243 -187 -251 -3 -7
-9 -114 -13 -237 -9 -311 -2 -344 111 -559 l86 -164 100 -88 c55 -48 153 -123
218 -166 l117 -79 166 -26 c91 -14 177 -26 190 -26 36 0 600 168 613 182 7 7
89 115 183 240 l171 226 10 144 c22 307 28 269 -83 559 l-97 255 -222 175
-222 176 -165 21 c-91 13 -176 22 -190 21 -14 0 -155 -38 -315 -83z m425 55
c35 -7 20 -9 -70 -9 -73 0 -108 3 -95 8 25 11 106 11 165 1z m230 -48 c0 -38
-23 -188 -30 -196 -4 -5 -106 41 -226 102 l-219 110 238 0 c219 1 237 0 237
-16z m-270 -107 c162 -82 219 -115 205 -119 -140 -42 -518 -147 -520 -145 -1
2 15 86 36 188 21 102 38 186 39 188 1 7 34 -9 240 -112z m523 -71 c81 -65
146 -119 144 -121 -3 -3 -349 70 -390 82 -14 4 -17 12 -13 32 3 15 11 64 17
110 l11 82 42 -33 c22 -18 108 -87 189 -152z m-838 165 c-3 -5 -11 -10 -16
-10 -5 0 -87 -47 -183 -105 -95 -58 -176 -105 -178 -105 -3 0 2 28 12 63 l17
62 154 45 c85 25 161 48 169 52 23 10 32 9 25 -2z m51 -7 c-2 -10 -19 -90 -37
-178 -18 -88 -35 -163 -39 -167 -3 -5 -84 18 -179 50 l-173 58 209 127 c114
69 212 127 216 127 5 0 6 -8 3 -17z m-442 -180 c-12 -42 -30 -66 -115 -149
-115 -115 -119 -118 -93 -82 43 59 219 285 221 284 1 -1 -5 -25 -13 -53z m936
-50 c0 -5 -14 -57 -31 -116 l-32 -108 -26 24 c-56 53 -86 61 -251 67 l-154 5
229 66 c233 68 265 75 265 62z m194 -232 c91 -129 165 -235 164 -236 -2 -1
-79 6 -173 16 -93 10 -178 18 -187 19 -14 0 -18 9 -18 43 0 24 -7 66 -15 93
-14 48 -14 52 22 177 20 70 37 126 39 125 1 -2 77 -108 168 -237z m76 197
c107 -23 198 -44 202 -47 7 -6 -84 -357 -95 -367 -3 -3 -291 395 -320 443 -11
19 -4 18 213 -29z m-1022 -49 c89 -29 162 -56 162 -59 0 -8 -450 -333 -455
-328 -9 9 108 449 119 445 6 -2 84 -28 174 -58z m-259 -156 c-27 -109 -51
-208 -54 -221 -7 -28 -12 -25 -115 71 l-73 67 144 140 c79 76 145 139 145 140
1 0 -21 -89 -47 -197z m1595 -103 c47 -123 84 -226 81 -228 -3 -3 -246 82
-266 94 -4 2 11 66 31 141 21 76 43 158 50 182 6 23 13 41 15 39 2 -2 42 -104
89 -228z m-759 166 c51 -22 95 -64 95 -90 0 -37 -37 -141 -49 -138 -13 2 -361
229 -376 244 -18 18 283 3 330 -16z m-395 -272 c0 -225 -3 -285 -12 -281 -69
27 -458 222 -456 229 3 9 449 336 461 337 4 1 7 -128 7 -285z m248 143 c100
-65 182 -122 182 -126 0 -7 -375 -281 -384 -281 -3 0 -6 122 -6 271 0 213 3
269 13 263 6 -4 94 -61 195 -127z m271 -74 c1 -40 -1 -43 -25 -43 -17 0 -24 5
-21 13 2 6 10 36 18 66 11 46 15 50 20 30 4 -13 7 -43 8 -66z m-1032 -137 c-3
-6 -40 -96 -83 -201 -91 -220 -82 -234 -86 131 l-3 242 88 -81 c48 -44 86 -85
84 -91z m1032 27 c-1 -80 -13 -93 -28 -31 -8 29 -16 59 -18 66 -3 7 4 12 21
12 24 0 26 -3 25 -47z m-44 -46 c19 -76 19 -77 -1 -104 -11 -16 -42 -39 -70
-53 -44 -23 -63 -25 -194 -28 l-145 -4 185 135 c102 74 190 134 195 133 6 -1
19 -37 30 -79z m275 67 c96 -10 177 -18 179 -20 2 -2 -70 -104 -160 -229
l-163 -225 -43 156 c-42 155 -42 157 -28 212 8 31 15 71 15 89 0 20 5 33 13
33 6 0 91 -7 187 -16z m250 -313 c27 -146 49 -265 47 -266 -2 -2 -420 88 -425
91 -2 1 70 103 160 227 90 124 164 222 165 218 2 -3 25 -125 53 -270z m113
232 c70 -26 127 -53 127 -59 0 -7 -39 -104 -88 -217 l-87 -205 -48 257 c-26
141 -48 259 -47 264 0 12 10 9 143 -40z m-1131 -202 c8 -7 -329 -288 -340
-284 -6 2 -120 474 -121 500 -1 10 438 -196 461 -216z m-420 -44 c31 -133 54
-244 52 -246 -3 -3 -273 87 -282 94 -2 1 34 93 80 203 46 110 85 198 88 195 3
-2 30 -113 62 -246z m-253 101 c-2 -164 -16 -145 -18 23 -1 93 3 119 16 119 2
0 2 -64 2 -142z m1251 -153 c0 -5 -9 4 -19 21 -22 36 -66 70 -111 85 l-31 11
46 29 c25 16 49 37 52 46 4 11 17 -19 34 -83 16 -54 28 -103 29 -109z m672
-34 c-6 -78 -13 -126 -21 -130 -15 -10 -121 -34 -126 -29 -2 2 31 84 73 183
88 205 90 205 74 -24z m-819 118 c52 -14 102 -61 123 -115 9 -24 15 -47 12
-49 -3 -4 -324 106 -468 160 -31 12 -18 14 130 14 91 1 182 -4 203 -10z m-405
-261 l-3 -235 -173 97 c-96 53 -172 101 -170 106 6 18 333 282 341 275 4 -4 6
-113 5 -243z m421 113 c118 -41 138 -52 127 -69 -9 -14 -427 -335 -431 -330
-9 9 -85 449 -85 490 l0 47 138 -49 c75 -26 188 -66 251 -89z m-924 -116 l120
-43 22 -163 c12 -90 21 -167 20 -171 -1 -5 -75 91 -165 213 -116 158 -156 218
-140 213 13 -4 77 -26 143 -49z m1332 5 c112 -24 201 -46 198 -48 -11 -11
-390 -319 -392 -318 -1 1 -6 73 -12 161 -6 88 -14 182 -17 209 -4 37 -2 47 8
44 7 -3 104 -24 215 -48z m-738 -273 c1 -16 -1 -16 -29 -2 l-30 16 1 147 1
147 28 -145 c16 -80 29 -153 29 -163z m510 107 c7 -107 11 -198 7 -201 -7 -7
-196 17 -216 28 -13 7 -12 8 3 9 26 0 88 34 114 62 44 47 63 107 63 206 0 157
16 102 29 -104z m-52 97 c-10 -127 -43 -186 -125 -223 -51 -23 -165 -33 -240
-21 l-52 8 202 157 c112 86 207 157 212 157 5 1 6 -33 3 -78z m517 -121 c-76
-99 -139 -178 -141 -176 -3 2 120 294 133 314 2 3 124 40 137 41 4 1 -54 -80
-129 -179z m-1460 -160 c6 -8 -18 10 -54 41 -52 45 -75 76 -117 155 -29 53
-53 100 -53 103 0 2 48 -60 106 -140 59 -79 112 -151 118 -159z m259 165 l138
-77 -3 -36 -3 -35 -154 -44 c-85 -24 -155 -42 -157 -41 -3 4 -44 320 -44 341
0 17 3 17 43 -6 23 -13 104 -59 180 -102z m1077 -86 c-44 -101 -82 -184 -83
-186 -6 -5 -207 71 -205 77 4 11 362 300 365 296 2 -2 -33 -86 -77 -187z
m-872 -41 c-22 -14 -38 -9 -38 12 0 17 3 18 25 8 19 -8 22 -14 13 -20z m96
-135 c29 -60 61 -125 69 -145 l15 -37 -36 14 c-254 91 -462 165 -481 173 -20
7 2 16 135 54 87 26 178 47 201 47 l43 1 54 -107z m251 82 c94 -14 173 -26
176 -28 4 -1 -64 -53 -150 -116 -86 -62 -160 -112 -165 -110 -5 2 -40 66 -78
142 l-68 137 58 0 c31 0 134 -11 227 -25z m312 -67 c51 -18 93 -35 93 -38 0
-3 -84 -29 -188 -59 -103 -30 -212 -62 -242 -72 -30 -10 -57 -15 -60 -12 -3 3
0 8 6 10 6 2 72 48 145 103 74 54 138 99 143 99 5 1 51 -14 103 -31z m-941
-46 c5 -5 84 -35 177 -68 92 -32 163 -60 158 -62 -6 -2 -56 4 -111 12 -91 15
-107 21 -177 67 -43 28 -80 52 -82 55 -8 8 25 4 35 -4z"/>
</g>
</svg>
